<svg width="12" height="9" viewBox="0 0 12 9" fill="none" xmlns="http://www.w3.org/2000/svg">
<path d="M4.38462 9C4.28205 8.99967 4.18064 8.97827 4.08669 8.93714C3.99274 8.896 3.90827 8.836 3.83852 8.76087L0.20278 4.89749C0.0668714 4.75282 -0.00593442 4.56013 0.000378846 4.36184C0.00669211 4.16354 0.0916074 3.97587 0.236444 3.84011C0.381281 3.70435 0.574176 3.63162 0.772693 3.63793C0.97121 3.64424 1.15909 3.72906 1.295 3.87373L4.37714 7.15424L10.6686 0.279371C10.7325 0.199953 10.8119 0.134412 10.902 0.0867722C10.9921 0.0391329 11.0911 0.0104015 11.1927 0.00234264C11.2944 -0.00571617 11.3966 0.00706785 11.4931 0.0399093C11.5896 0.0727508 11.6784 0.124956 11.754 0.19332C11.8296 0.261683 11.8904 0.344761 11.9327 0.43745C11.975 0.530139 11.9978 0.630484 11.9999 0.732319C12.0019 0.834155 11.9831 0.935332 11.9445 1.02964C11.906 1.12394 11.8486 1.20938 11.7758 1.28071L4.93821 8.7534C4.86912 8.82989 4.78494 8.89128 4.69096 8.93371C4.59698 8.97615 4.49523 8.99872 4.39211 9H4.38462Z" fill="#355070"/>
</svg>
